<?xml version="1.0" encoding="UTF-8" standalone="no"?>
<!-- Created with Inkscape (http://www.inkscape.org/) -->

<svg
   width="640.4386"
   height="636.80334"
   viewBox="0 0 169.44937 168.48756"
   version="1.1"
   id="svg5"
   inkscape:version="1.1.1 (3bf5ae0, 2021-09-20)"
   sodipodi:docname="logo.svg"
   inkscape:export-filename="/home/anurag/Documents/freelancing/projects/sample_church_page/img/android-icon-512x512.png"
   inkscape:export-xdpi="423.32999"
   inkscape:export-ydpi="423.32999"
   xmlns:inkscape="http://www.inkscape.org/namespaces/inkscape"
   xmlns:sodipodi="http://sodipodi.sourceforge.net/DTD/sodipodi-0.dtd"
   xmlns="http://www.w3.org/2000/svg"
   xmlns:svg="http://www.w3.org/2000/svg">
  <sodipodi:namedview
     id="namedview7"
     pagecolor="#ffffff"
     bordercolor="#666666"
     borderopacity="1.0"
     inkscape:pageshadow="2"
     inkscape:pageopacity="0.0"
     inkscape:pagecheckerboard="0"
     inkscape:document-units="mm"
     showgrid="false"
     units="px"
     width="360px"
     showborder="false"
     inkscape:zoom="0.36569515"
     inkscape:cx="34.181476"
     inkscape:cy="304.89877"
     inkscape:window-width="1920"
     inkscape:window-height="1002"
     inkscape:window-x="0"
     inkscape:window-y="0"
     inkscape:window-maximized="1"
     inkscape:current-layer="g845" />
  <defs
     id="defs2" />
  <g
     inkscape:label="Layer 1"
     inkscape:groupmode="layer"
     id="layer1"
     transform="translate(17.117051,67.791551)">
    <g
       id="g845"
       transform="matrix(4.8709443,0,0,4.8709443,-254.96622,-375.82594)"
       style="fill:#ffffff;fill-opacity:1;stroke:#000000;stroke-opacity:1">
      <path
         style="fill:#64909b;fill-opacity:1;stroke:none;stroke-width:0.250408"
         d="M 49.428556,80.334428 V 64.316185 H 65.795359 82.162163 V 80.334428 96.352675 H 65.795359 49.428556 Z m 3.713038,14.109459 c 0.0817,-0.634088 0.179668,-0.707127 0.869039,-0.647615 0.645404,0.05572 0.792554,0.188414 0.869039,0.78363 0.0688,0.535395 0.215291,0.698817 0.57936,0.646418 0.407969,-0.0587 0.48727,-0.350924 0.48727,-1.795894 0,-1.471492 -0.07472,-1.736523 -0.506949,-1.798725 -0.406423,-0.0585 -0.506949,0.08042 -0.506949,0.70054 0,0.711419 -0.06825,0.77349 -0.850678,0.77349 -0.748001,0 -0.861636,-0.08492 -0.941454,-0.703505 -0.05817,-0.45088 -0.246807,-0.703501 -0.525294,-0.703501 -0.344721,0 -0.451967,0.372762 -0.519053,1.803431 -0.07663,1.634991 -0.03626,1.796565 0.434526,1.729926 0.349415,-0.04949 0.549117,-0.307048 0.611095,-0.788195 z m 7.240732,0.339447 c 0.07909,-0.310555 -0.116104,-0.378819 -1.083481,-0.378819 -0.855728,0 -1.17995,-0.08923 -1.17995,-0.324702 0,-0.226789 0.305791,-0.324702 1.013873,-0.324702 0.7081,0 1.013875,-0.09791 1.013875,-0.324702 0,-0.22679 -0.305792,-0.324702 -1.013875,-0.324702 -1.445728,0 -1.382747,-0.600439 0.07243,-0.690434 0.732516,-0.04531 1.086293,-0.172911 1.086293,-0.39189 0,-0.243446 -0.416823,-0.340921 -1.665646,-0.389618 l -1.665652,-0.06491 v 1.861537 1.861541 l 1.662836,-0.06491 c 1.311677,-0.05121 1.683206,-0.144897 1.759307,-0.443727 z m 1.64722,0.05412 c 0.135885,-0.31996 0.438315,-0.432929 1.158713,-0.432929 0.72042,0 1.022819,0.112982 1.158713,0.432929 0.101118,0.238107 0.435806,0.432924 0.743714,0.432924 0.307925,0 0.559837,-0.0267 0.559837,-0.0591 0,-0.03269 -0.437194,-0.83612 -0.971549,-1.785817 -0.577493,-1.026373 -1.164068,-1.754981 -1.446211,-1.796393 -0.344561,-0.05057 -0.753219,0.387067 -1.490721,1.596379 -0.558822,0.916327 -1.016047,1.751299 -1.016047,1.855487 0,0.384916 1.125976,0.174586 1.303551,-0.243482 z m 0.838045,-1.424716 c 0.09668,-0.188333 0.1778,-0.407483 0.180253,-0.487041 0.006,-0.193674 0.564826,0.459859 0.570483,0.667094 0.0025,0.08931 -0.205049,0.162351 -0.461084,0.162351 -0.30547,0 -0.405036,-0.117719 -0.289685,-0.342396 z m 6.010796,0.233046 c 0.926922,-1.773854 0.97998,-2.055274 0.387437,-2.055274 -0.252994,0 -0.72442,0.483255 -1.108625,1.136428 l -0.668463,1.136433 -0.429408,-0.958619 c -0.420714,-0.939174 -1.187548,-1.551739 -1.57763,-1.260249 -0.108149,0.08082 0.07749,0.661806 0.412449,1.291121 0.334962,0.629315 0.74347,1.419169 0.907745,1.755232 0.489936,1.002291 1.190998,0.649459 2.076473,-1.045072 z m 4.883115,1.19167 c 0,-0.360768 -0.193104,-0.432929 -1.158708,-0.432929 -0.836849,0 -1.158712,-0.09018 -1.158712,-0.324702 0,-0.226789 0.30579,-0.3247 1.013869,-0.3247 0.708104,0 1.013878,-0.09791 1.013878,-0.324703 0,-0.22679 -0.305792,-0.324702 -1.013878,-0.324702 -0.7081,0 -1.013869,-0.09791 -1.013869,-0.324702 0,-0.235477 0.324241,-0.324702 1.179949,-0.324702 0.967837,0 1.162402,-0.0681 1.08233,-0.378819 -0.07882,-0.305893 -0.403598,-0.37882 -1.686894,-0.37882 h -1.58926 l -0.08666,1.493765 c -0.04746,0.821566 -0.01921,1.625184 0.0633,1.785816 0.100859,0.196385 0.674829,0.292066 1.7523,0.292066 1.409202,0 1.602318,-0.05217 1.602318,-0.432924 z m 2.027747,-0.624941 0.144842,-0.945755 0.970667,1.013478 c 1.45347,1.517574 1.926112,1.309049 1.926112,-0.849793 0,-1.450383 -0.07839,-1.737051 -0.491164,-1.796456 -0.401036,-0.05771 -0.50732,0.130988 -0.579358,1.028497 l -0.08821,1.099177 -1.019039,-1.031459 c -1.515256,-1.533733 -1.860569,-1.397884 -1.962257,0.771973 -0.07663,1.635042 -0.03626,1.796553 0.434527,1.729763 0.375704,-0.05332 0.559024,-0.334824 0.663877,-1.019425 z m -17.380673,-9.12284 c 0,-3.863662 0.09446,-5.154503 0.419701,-5.736177 1.902391,-3.402289 7.499613,-4.453558 11.179614,-2.099747 2.309763,1.47737 2.436254,1.859117 2.544914,7.680528 0.09258,4.960623 0.11615,5.140991 0.671288,5.140991 0.560405,0 0.572959,-0.13338 0.483963,-5.140991 -0.08649,-4.867114 -0.127942,-5.201432 -0.777776,-6.275611 -1.867374,-3.086749 -7.046297,-4.519741 -10.937851,-3.026471 -1.779739,0.682927 -3.088935,1.620282 -3.957122,2.833212 -0.603096,0.842575 -0.645898,1.208519 -0.731363,6.25241 -0.08966,5.289911 -0.08326,5.357451 0.506949,5.357451 0.586532,0 0.597714,-0.09325 0.597714,-4.985595 z m 2.034104,0.27752 c 0.007,-5.190768 0.217049,-5.966821 1.879373,-6.943915 1.941795,-1.141366 4.317036,-1.095396 6.251583,0.120985 1.584328,0.996183 1.711732,1.49946 1.711732,6.76185 0,4.624824 0.0176,4.769131 0.579356,4.769131 0.562565,0 0.57917,-0.142705 0.572996,-4.924528 -0.007,-5.538969 -0.158015,-6.067239 -2.095907,-7.338674 -2.925706,-1.919546 -7.264814,-1.337606 -9.19517,1.233214 -0.705772,0.93993 -0.726527,1.092529 -0.81588,5.997231 -0.09045,4.964528 -0.08356,5.032757 0.506949,5.032757 0.586494,0 0.598748,-0.09536 0.604978,-4.708063 z m 2.311062,-0.07078 V 80.51758 l 0.846753,-0.632735 c 0.951102,-0.710717 1.925056,-0.804087 3.209637,-0.307686 1.233885,0.4768 1.444046,1.381307 1.445874,6.222957 0.0016,4.177796 0.01542,4.275138 0.600883,4.275138 0.590852,0 0.597914,-0.06767 0.502523,-4.816292 -0.10634,-5.293363 -0.221958,-5.69899 -1.8375,-6.445086 -1.258389,-0.581161 -3.289732,-0.56962 -4.300381,0.0243 -1.52684,0.897458 -1.626506,1.293553 -1.626506,6.46402 0,4.628621 0.0176,4.772927 0.579358,4.772927 0.561856,0 0.579355,-0.144297 0.579355,-4.778829 z m 2.094286,0.290033 c 0.07109,-4.07591 0.124951,-4.495477 0.585237,-4.561589 0.46983,-0.06746 0.506948,0.260981 0.506948,4.488777 0,4.417282 0.01813,4.561588 0.579354,4.561588 0.561392,0 0.579352,-0.144298 0.579352,-4.653944 0,-4.365333 -0.03573,-4.680802 -0.579352,-5.086879 -0.79032,-0.590568 -1.579807,-0.543322 -2.296399,0.137445 -0.56382,0.535614 -0.600381,0.845393 -0.600381,5.086874 0,4.356788 0.02026,4.516525 0.573477,4.516525 0.550565,0 0.576607,-0.179328 0.651776,-4.488777 z M 62.753742,73.061057 c 0,-0.896549 0.140839,-1.826744 0.312991,-2.067106 0.411649,-0.57478 1.944215,-1.039704 2.952471,-0.895676 1.387997,0.198257 1.948734,0.990736 1.948734,2.754064 0,1.434388 0.284778,2.070497 0.926971,2.070497 0.127458,0 0.231236,-0.852323 0.230648,-1.894051 -0.0012,-2.219617 -0.547245,-3.132572 -2.177842,-3.641678 -0.831383,-0.259587 -1.007528,-0.4276 -1.007528,-0.961059 0,-0.430341 0.145261,-0.646483 0.434525,-0.646483 0.241424,0 0.434528,-0.192398 0.434528,-0.432924 0,-0.240497 -0.193104,-0.432927 -0.434528,-0.432927 -0.238968,0 -0.434525,-0.146094 -0.434525,-0.324703 0,-0.180402 -0.257474,-0.324702 -0.57936,-0.324702 -0.321843,0 -0.579354,0.1443 -0.579354,0.324702 0,0.17857 -0.195506,0.324703 -0.434528,0.324703 -0.241421,0 -0.434527,0.192397 -0.434527,0.432927 0,0.240498 0.193106,0.432924 0.434527,0.432924 0.28814,0 0.434528,0.215353 0.434528,0.639233 0,0.521736 -0.192626,0.707543 -1.048076,1.010873 -1.688881,0.59887 -2.136042,1.376102 -2.1373,3.714964 -10e-4,1.942932 0.01813,2.002178 0.578277,1.778201 0.500601,-0.200209 0.579352,-0.453235 0.579352,-1.861779 z m 2.086346,0.07596 c 0.06566,-1.029621 0.190066,-1.352892 0.520761,-1.352892 0.330695,0 0.455111,0.323267 0.520759,1.352892 0.07492,1.175555 0.160363,1.352893 0.651776,1.352893 0.500868,0 0.565531,-0.155376 0.565531,-1.358847 0,-1.635285 -0.513508,-2.32102 -1.738066,-2.32102 -1.224565,0 -1.738068,0.685735 -1.738068,2.32102 0,1.203466 0.06469,1.358847 0.565531,1.358847 0.491377,0 0.576842,-0.177335 0.651776,-1.352893 z"
         id="path1438" />
      <path
         style="fill:#000000;stroke-width:0.0543187"
         id="path1418"
         d="" />
      <path
         style="fill:#000000;stroke-width:0.0543187"
         id="path1398"
         d="" />
      <path
         style="fill:#000000;stroke-width:0.0543187"
         id="path942"
         d="" />
    </g>
  </g>
</svg>
